<svg width="36" height="22" viewBox="0 0 36 22" fill="none" xmlns="http://www.w3.org/2000/svg">
<path d="M35.318 7.26458C35.5922 7.08698 36 7.25313 36 7.53385V19.25C36 20.7682 34.4883 22 32.625 22H3.375C1.51172 22 0 20.7682 0 19.25V7.53958C0 7.25313 0.400781 7.09271 0.682031 7.27031C2.25703 8.26719 4.34531 9.53333 11.5172 13.7786C13.0008 14.6609 15.5039 16.5172 18 16.5057C20.5102 16.5229 23.0625 14.6266 24.4898 13.7786C31.6617 9.53333 33.743 8.26146 35.318 7.26458ZM18 14.6667C19.6313 14.6896 21.9797 12.9938 23.1609 12.2948C32.4914 6.7776 33.2016 6.29635 35.3531 4.92135C35.7609 4.66354 36 4.2625 36 3.83854V2.75C36 1.23177 34.4883 0 32.625 0H3.375C1.51172 0 0 1.23177 0 2.75V3.83854C0 4.2625 0.239062 4.65781 0.646875 4.92135C2.79844 6.29062 3.50859 6.7776 12.8391 12.2948C14.0203 12.9938 16.3687 14.6896 18 14.6667Z" fill="white"/>
</svg>
