<svg width="40" height="40" viewBox="0 0 40 40" fill="none" xmlns="http://www.w3.org/2000/svg">
<path d="M29.7365 37.6338L32.8575 31.7383C33.1961 31.0976 33.0262 30.3021 32.4599 29.854L26.4669 25.1549C25.9425 24.7437 25.2029 24.728 24.6649 25.1216L20.6953 27.9845C16.6414 24.5775 13.799 19.7532 12.8408 14.4343L17.298 12.4125C17.9086 12.1352 18.2609 11.4917 18.1648 10.8323L17.0658 3.2964C16.9539 2.57461 16.3481 2.03184 15.6238 2.00726L8.9568 1.78533C8.26433 1.76275 7.63894 2.2172 7.45733 2.89969C3.34137 18.3673 12.5324 34.2587 28.0243 38.3811C28.7007 38.5611 29.4103 38.252 29.7365 37.6338Z" fill="white"/>
</svg>
